<mxfile host="app.diagrams.net" modified="2023-12-30T14:53:15.478Z" agent="Mozilla/5.0 (Windows NT 10.0; Win64; x64; rv:109.0) Gecko/20100101 Firefox/119.0" etag="NRu87ikQyAS48SSutjYZ" version="22.1.16" type="device">
  <diagram name="Page-1" id="zddwir63TJJsyj_5wL79">
    <mxGraphModel dx="989" dy="514" grid="1" gridSize="10" guides="1" tooltips="1" connect="1" arrows="1" fold="1" page="1" pageScale="1" pageWidth="850" pageHeight="1100" math="0" shadow="0">
      <root>
        <mxCell id="0" />
        <mxCell id="1" parent="0" />
        <mxCell id="NMnmVivJ21dvbjRUj5LQ-1" value="" style="ellipse;html=1;shape=startState;fillColor=#000000;strokeColor=#ff0000;" vertex="1" parent="1">
          <mxGeometry x="50" y="40" width="30" height="30" as="geometry" />
        </mxCell>
        <mxCell id="NMnmVivJ21dvbjRUj5LQ-2" value="" style="edgeStyle=orthogonalEdgeStyle;html=1;verticalAlign=bottom;endArrow=open;endSize=8;strokeColor=#ff0000;rounded=0;" edge="1" source="NMnmVivJ21dvbjRUj5LQ-1" parent="1">
          <mxGeometry relative="1" as="geometry">
            <mxPoint x="65" y="130" as="targetPoint" />
          </mxGeometry>
        </mxCell>
        <mxCell id="NMnmVivJ21dvbjRUj5LQ-6" style="edgeStyle=orthogonalEdgeStyle;rounded=0;orthogonalLoop=1;jettySize=auto;html=1;exitX=1;exitY=0.5;exitDx=0;exitDy=0;entryX=0;entryY=0.5;entryDx=0;entryDy=0;" edge="1" parent="1" source="NMnmVivJ21dvbjRUj5LQ-3" target="NMnmVivJ21dvbjRUj5LQ-5">
          <mxGeometry relative="1" as="geometry" />
        </mxCell>
        <mxCell id="NMnmVivJ21dvbjRUj5LQ-3" value="Registar Mesa , codigo de funcionario e data/hora" style="rounded=1;whiteSpace=wrap;html=1;" vertex="1" parent="1">
          <mxGeometry x="50" y="130" width="120" height="70" as="geometry" />
        </mxCell>
        <mxCell id="NMnmVivJ21dvbjRUj5LQ-4" value="Cliente Faz Pedido" style="text;html=1;align=center;verticalAlign=middle;resizable=0;points=[];autosize=1;strokeColor=none;fillColor=none;" vertex="1" parent="1">
          <mxGeometry x="56" y="70" width="130" height="30" as="geometry" />
        </mxCell>
        <mxCell id="NMnmVivJ21dvbjRUj5LQ-8" style="edgeStyle=orthogonalEdgeStyle;rounded=0;orthogonalLoop=1;jettySize=auto;html=1;exitX=1;exitY=0.5;exitDx=0;exitDy=0;entryX=0;entryY=0.5;entryDx=0;entryDy=0;" edge="1" parent="1" source="NMnmVivJ21dvbjRUj5LQ-5" target="NMnmVivJ21dvbjRUj5LQ-7">
          <mxGeometry relative="1" as="geometry" />
        </mxCell>
        <mxCell id="NMnmVivJ21dvbjRUj5LQ-5" value="Adicionar produtos ao pedido" style="rounded=1;whiteSpace=wrap;html=1;" vertex="1" parent="1">
          <mxGeometry x="220" y="135" width="120" height="60" as="geometry" />
        </mxCell>
        <mxCell id="NMnmVivJ21dvbjRUj5LQ-21" style="edgeStyle=orthogonalEdgeStyle;rounded=0;orthogonalLoop=1;jettySize=auto;html=1;entryX=0.5;entryY=1;entryDx=0;entryDy=0;" edge="1" parent="1" source="NMnmVivJ21dvbjRUj5LQ-7" target="NMnmVivJ21dvbjRUj5LQ-17">
          <mxGeometry relative="1" as="geometry">
            <mxPoint x="410" y="110" as="targetPoint" />
          </mxGeometry>
        </mxCell>
        <mxCell id="NMnmVivJ21dvbjRUj5LQ-25" style="edgeStyle=orthogonalEdgeStyle;rounded=0;orthogonalLoop=1;jettySize=auto;html=1;exitX=0.5;exitY=1;exitDx=0;exitDy=0;entryX=0.25;entryY=0;entryDx=0;entryDy=0;" edge="1" parent="1">
          <mxGeometry relative="1" as="geometry">
            <mxPoint x="409.36" y="172.5" as="sourcePoint" />
            <mxPoint x="410.61" y="210" as="targetPoint" />
          </mxGeometry>
        </mxCell>
        <mxCell id="NMnmVivJ21dvbjRUj5LQ-7" value="" style="rhombus;whiteSpace=wrap;html=1;" vertex="1" parent="1">
          <mxGeometry x="400" y="157.5" width="20" height="15" as="geometry" />
        </mxCell>
        <mxCell id="NMnmVivJ21dvbjRUj5LQ-16" style="edgeStyle=orthogonalEdgeStyle;rounded=0;orthogonalLoop=1;jettySize=auto;html=1;exitX=1;exitY=0.5;exitDx=0;exitDy=0;entryX=0;entryY=0.5;entryDx=0;entryDy=0;" edge="1" parent="1" source="NMnmVivJ21dvbjRUj5LQ-10" target="NMnmVivJ21dvbjRUj5LQ-15">
          <mxGeometry relative="1" as="geometry" />
        </mxCell>
        <mxCell id="NMnmVivJ21dvbjRUj5LQ-10" value="Pedido cancelamento produto" style="rounded=1;whiteSpace=wrap;html=1;" vertex="1" parent="1">
          <mxGeometry x="480" y="70" width="120" height="60" as="geometry" />
        </mxCell>
        <mxCell id="NMnmVivJ21dvbjRUj5LQ-13" value="&lt;font style=&quot;font-size: 9px;&quot;&gt;Nenhum produto chegou a mesa&lt;/font&gt;" style="text;html=1;align=center;verticalAlign=middle;resizable=0;points=[];autosize=1;strokeColor=none;fillColor=none;" vertex="1" parent="1">
          <mxGeometry x="400" y="127.5" width="160" height="30" as="geometry" />
        </mxCell>
        <mxCell id="NMnmVivJ21dvbjRUj5LQ-15" value="Notificar admin" style="rounded=1;whiteSpace=wrap;html=1;" vertex="1" parent="1">
          <mxGeometry x="630" y="70" width="100" height="60" as="geometry" />
        </mxCell>
        <mxCell id="NMnmVivJ21dvbjRUj5LQ-18" style="edgeStyle=orthogonalEdgeStyle;rounded=0;orthogonalLoop=1;jettySize=auto;html=1;" edge="1" parent="1" source="NMnmVivJ21dvbjRUj5LQ-17" target="NMnmVivJ21dvbjRUj5LQ-10">
          <mxGeometry relative="1" as="geometry" />
        </mxCell>
        <mxCell id="NMnmVivJ21dvbjRUj5LQ-26" style="edgeStyle=orthogonalEdgeStyle;rounded=0;orthogonalLoop=1;jettySize=auto;html=1;entryX=0;entryY=0.5;entryDx=0;entryDy=0;" edge="1" parent="1" source="NMnmVivJ21dvbjRUj5LQ-17" target="NMnmVivJ21dvbjRUj5LQ-22">
          <mxGeometry relative="1" as="geometry">
            <Array as="points">
              <mxPoint x="370" y="100" />
              <mxPoint x="370" y="230" />
            </Array>
          </mxGeometry>
        </mxCell>
        <mxCell id="NMnmVivJ21dvbjRUj5LQ-17" value="" style="rhombus;whiteSpace=wrap;html=1;" vertex="1" parent="1">
          <mxGeometry x="400" y="92.5" width="20" height="15" as="geometry" />
        </mxCell>
        <mxCell id="NMnmVivJ21dvbjRUj5LQ-19" value="&lt;font style=&quot;font-size: 9px;&quot;&gt;Cancelar Pedido&lt;/font&gt;" style="text;html=1;align=center;verticalAlign=middle;resizable=0;points=[];autosize=1;strokeColor=none;fillColor=none;" vertex="1" parent="1">
          <mxGeometry x="400" y="70" width="90" height="30" as="geometry" />
        </mxCell>
        <mxCell id="NMnmVivJ21dvbjRUj5LQ-28" style="edgeStyle=orthogonalEdgeStyle;rounded=0;orthogonalLoop=1;jettySize=auto;html=1;entryX=0.5;entryY=0;entryDx=0;entryDy=0;" edge="1" parent="1" source="NMnmVivJ21dvbjRUj5LQ-22" target="NMnmVivJ21dvbjRUj5LQ-27">
          <mxGeometry relative="1" as="geometry" />
        </mxCell>
        <mxCell id="NMnmVivJ21dvbjRUj5LQ-22" value="Fechar Conta" style="rounded=1;whiteSpace=wrap;html=1;" vertex="1" parent="1">
          <mxGeometry x="390" y="210" width="85" height="40" as="geometry" />
        </mxCell>
        <mxCell id="NMnmVivJ21dvbjRUj5LQ-23" value="" style="ellipse;html=1;shape=endState;fillColor=#000000;strokeColor=#ff0000;" vertex="1" parent="1">
          <mxGeometry x="770" y="85" width="30" height="30" as="geometry" />
        </mxCell>
        <mxCell id="NMnmVivJ21dvbjRUj5LQ-24" style="edgeStyle=orthogonalEdgeStyle;rounded=0;orthogonalLoop=1;jettySize=auto;html=1;entryX=0.138;entryY=0.524;entryDx=0;entryDy=0;entryPerimeter=0;" edge="1" parent="1" source="NMnmVivJ21dvbjRUj5LQ-15" target="NMnmVivJ21dvbjRUj5LQ-23">
          <mxGeometry relative="1" as="geometry" />
        </mxCell>
        <mxCell id="NMnmVivJ21dvbjRUj5LQ-30" style="edgeStyle=orthogonalEdgeStyle;rounded=0;orthogonalLoop=1;jettySize=auto;html=1;entryX=0.5;entryY=0;entryDx=0;entryDy=0;" edge="1" parent="1" source="NMnmVivJ21dvbjRUj5LQ-27" target="NMnmVivJ21dvbjRUj5LQ-29">
          <mxGeometry relative="1" as="geometry" />
        </mxCell>
        <mxCell id="NMnmVivJ21dvbjRUj5LQ-27" value="Registar dados no sistema" style="rounded=1;whiteSpace=wrap;html=1;" vertex="1" parent="1">
          <mxGeometry x="382.5" y="290" width="100" height="50" as="geometry" />
        </mxCell>
        <mxCell id="NMnmVivJ21dvbjRUj5LQ-33" style="edgeStyle=orthogonalEdgeStyle;rounded=0;orthogonalLoop=1;jettySize=auto;html=1;entryX=1;entryY=0.5;entryDx=0;entryDy=0;" edge="1" parent="1" source="NMnmVivJ21dvbjRUj5LQ-29" target="NMnmVivJ21dvbjRUj5LQ-31">
          <mxGeometry relative="1" as="geometry" />
        </mxCell>
        <mxCell id="NMnmVivJ21dvbjRUj5LQ-29" value="" style="rhombus;whiteSpace=wrap;html=1;" vertex="1" parent="1">
          <mxGeometry x="419" y="360" width="27" height="20" as="geometry" />
        </mxCell>
        <mxCell id="NMnmVivJ21dvbjRUj5LQ-37" style="edgeStyle=orthogonalEdgeStyle;rounded=0;orthogonalLoop=1;jettySize=auto;html=1;entryX=1;entryY=0.5;entryDx=0;entryDy=0;" edge="1" parent="1" source="NMnmVivJ21dvbjRUj5LQ-31" target="NMnmVivJ21dvbjRUj5LQ-36">
          <mxGeometry relative="1" as="geometry" />
        </mxCell>
        <mxCell id="NMnmVivJ21dvbjRUj5LQ-31" value="Finalizar pedido" style="rounded=1;whiteSpace=wrap;html=1;" vertex="1" parent="1">
          <mxGeometry x="220" y="340" width="120" height="60" as="geometry" />
        </mxCell>
        <mxCell id="NMnmVivJ21dvbjRUj5LQ-34" value="Aprovado" style="text;html=1;align=center;verticalAlign=middle;resizable=0;points=[];autosize=1;strokeColor=none;fillColor=none;fontSize=10;" vertex="1" parent="1">
          <mxGeometry x="345" y="348" width="70" height="30" as="geometry" />
        </mxCell>
        <mxCell id="NMnmVivJ21dvbjRUj5LQ-35" style="edgeStyle=orthogonalEdgeStyle;rounded=0;orthogonalLoop=1;jettySize=auto;html=1;entryX=0.5;entryY=1;entryDx=0;entryDy=0;" edge="1" parent="1" source="NMnmVivJ21dvbjRUj5LQ-29" target="NMnmVivJ21dvbjRUj5LQ-29">
          <mxGeometry relative="1" as="geometry">
            <Array as="points">
              <mxPoint x="466" y="370" />
              <mxPoint x="466" y="400" />
              <mxPoint x="433" y="400" />
            </Array>
          </mxGeometry>
        </mxCell>
        <mxCell id="NMnmVivJ21dvbjRUj5LQ-36" value="" style="ellipse;html=1;shape=endState;fillColor=#000000;strokeColor=#ff0000;" vertex="1" parent="1">
          <mxGeometry x="156" y="355" width="30" height="30" as="geometry" />
        </mxCell>
      </root>
    </mxGraphModel>
  </diagram>
</mxfile>
